<svg xmlns="http://www.w3.org/2000/svg" width="22" height="22" viewBox="0 0 22 22">
    <path fill="#7C519B" fill-rule="evenodd" d="M16.72 15.204c-.14.365-.692 1.05-1.078 1.343-.349.264-.596.365-.923.381-.268.013-.379-.01-.722-.151-2.692-1.108-4.842-2.762-6.548-5.036-.891-1.186-1.57-2.417-2.035-3.694-.27-.745-.283-1.068-.06-1.45.096-.16.503-.558.801-.78.495-.368.723-.504.904-.542.126-.027.342-.006.48.044.067.023.171.077.23.115.364.241 1.379 1.537 1.71 2.184.19.37.253.643.194.846-.062.218-.164.333-.617.7-.183.147-.354.298-.38.338a.89.89 0 0 0-.125.432c.002.32.21.9.481 1.346.212.347.588.79.963 1.132.44.402.826.676 1.264.892.56.28.905.35 1.156.233a.876.876 0 0 0 .15-.084c.02-.017.167-.197.329-.396.31-.39.382-.454.594-.526.271-.093.547-.068.825.074.211.11.671.395.968.601.391.274 1.227.956 1.34 1.091.2.246.235.56.1.907m-2.864-5.03c-.113.103-.322.107-.449.01-.091-.07-.12-.143-.142-.34a1.791 1.791 0 0 0-.15-.616c-.168-.361-.465-.55-.968-.61-.235-.029-.307-.056-.383-.146a.357.357 0 0 1 .108-.536c.072-.036.103-.04.264-.03.1.005.247.022.326.04.377.08.667.224.914.455.32.3.494.664.57 1.187.052.341.03.475-.09.586m-.648-2.552c-.386-.23-.955-.4-1.474-.442-.189-.016-.292-.054-.362-.136a.349.349 0 0 1-.03-.433c.1-.155.253-.18.711-.111 1.165.17 2.066.71 2.656 1.587.333.494.54 1.074.61 1.697.025.227.025.643-.002.711a.434.434 0 0 1-.175.19.43.43 0 0 1-.322-.011c-.147-.075-.191-.194-.191-.515 0-.496-.129-1.019-.35-1.424a2.913 2.913 0 0 0-1.071-1.113m-2.285-2.466c.09-.082.153-.094.465-.084.164.006.402.024.533.04.66.082 1.193.241 1.778.526.575.282.943.548 1.43 1.032.456.458.709.804.978 1.342.373.75.587 1.643.623 2.625.013.335.004.41-.073.505-.146.187-.466.155-.575-.053-.035-.069-.045-.128-.056-.397a6.889 6.889 0 0 0-.106-.995c-.226-1.246-.823-2.242-1.778-2.956-.796-.597-1.619-.888-2.696-.951-.365-.02-.428-.034-.51-.098-.153-.12-.161-.404-.013-.536M11 0C4.925 0 0 4.925 0 11s4.925 11 11 11 11-4.925 11-11S17.075 0 11 0"/>
</svg>
