<svg xmlns="http://www.w3.org/2000/svg" width="22" height="22" viewBox="0 0 22 22">
    <path fill="#40C151" fill-rule="evenodd" d="M22 10.717c0 5.918-4.835 10.716-10.8 10.716-1.894 0-3.673-.483-5.22-1.333L0 22l1.949-5.75a10.602 10.602 0 0 1-1.55-5.533C.4 4.798 5.236 0 11.2 0S22 4.798 22 10.717m-5.346 2.469c-.067-.11-.244-.176-.507-.307-.265-.132-1.567-.768-1.81-.855-.242-.087-.42-.13-.595.132-.177.262-.684.854-.84 1.03-.153.175-.307.197-.572.065-.266-.131-1.119-.41-2.13-1.303-.786-.697-1.318-1.557-1.473-1.82-.154-.262-.015-.404.116-.535.12-.118.265-.307.398-.46.132-.154.176-.263.264-.439.089-.175.045-.328-.022-.46-.066-.13-.596-1.423-.817-1.95-.219-.525-.44-.438-.595-.438-.154 0-.33-.021-.507-.021a.975.975 0 0 0-.706.328c-.242.263-.926.899-.926 2.19 0 1.293.948 2.543 1.08 2.717.133.175 1.831 2.915 4.523 3.966 2.691 1.052 2.691.7 3.177.657.484-.043 1.566-.635 1.787-1.249.22-.613.22-1.14.155-1.248"/>
</svg>
